<svg viewBox="0 0 4335 4335" xml:space="preserve" xmlns="http://www.w3.org/2000/svg" shape-rendering="geometricPrecision" text-rendering="geometricPrecision" image-rendering="optimizeQuality" fill-rule="evenodd" clip-rule="evenodd"><path d="M542 119h3251c233 0 423 190 423 423v3251c0 233-190 423-423 423H542c-233 0-423-190-423-423V542c0-233 190-423 423-423zm662 2277v558H863V1353h551c398 0 597 169 597 506 0 164-60 296-180 394-120 99-271 146-451 142h-176zm0-778v517h148c201 0 301-87 301-262 0-170-99-255-298-255h-151zm2269-265-500 1100c-102 225-198 369-286 433-89 64-185 96-289 96-84 0-153-12-207-37v-313c61 39 123 59 188 59 94 0 177-77 249-229l-527-1108h388l279 666c14 32 26 74 37 127h2c8-37 21-79 39-124l268-669h360z" fill="#121212" class="fill-2b2a29"/></svg>