<svg width="0" height="0" class="hidden">
  <symbol version="1.1" xmlns="http://www.w3.org/2000/svg" xmlns:xlink="http://www.w3.org/1999/xlink" viewBox="0 0 16 16" id="about">
    <title>person</title>
    <desc>Created with Sketch.</desc>
    <g id="Icons" stroke="none" stroke-width="1" fill="none" fill-rule="evenodd">
      <g id="Rounded" transform="translate(-138.000000, -4102.000000)">
        <g id="Social" transform="translate(100.000000, 4044.000000)">
          <g id="-Round-/-Social-/-person" transform="translate(34.000000, 54.000000)">
            <g>
              <polygon id="Path" points="0 0 24 0 24 24 0 24"></polygon>
              <path d="M12,12 C14.21,12 16,10.21 16,8 C16,5.79 14.21,4 12,4 C9.79,4 8,5.79 8,8 C8,10.21 9.79,12 12,12 Z M12,14 C9.33,14 4,15.34 4,18 L4,19 C4,19.55 4.45,20 5,20 L19,20 C19.55,20 20,19.55 20,19 L20,18 C20,15.34 14.67,14 12,14 Z" id="🔹-Icon-Color" fill="#181818"></path>
            </g>
          </g>
        </g>
      </g>
    </g>
  </symbol>
  <symbol version="1.1" xmlns="http://www.w3.org/2000/svg" xmlns:xlink="http://www.w3.org/1999/xlink" preserveAspectRatio="xMidYMid" viewBox="0 0 256 272" id="angular">
    <g>
      <path d="M0.0996108949,45.522179 L125.908171,0.697276265 L255.103502,44.7252918 L234.185214,211.175097 L125.908171,271.140856 L19.3245136,211.971984 L0.0996108949,45.522179 Z" fill="#E23237"></path>
      <path d="M255.103502,44.7252918 L125.908171,0.697276265 L125.908171,271.140856 L234.185214,211.274708 L255.103502,44.7252918 L255.103502,44.7252918 Z" fill="#B52E31"></path>
      <path d="M126.107393,32.27393 L126.107393,32.27393 L47.7136187,206.692607 L76.9992218,206.194553 L92.7377432,166.848249 L126.207004,166.848249 L126.306615,166.848249 L163.063035,166.848249 L180.29572,206.692607 L208.286381,207.190661 L126.107393,32.27393 L126.107393,32.27393 Z M126.306615,88.155642 L152.803113,143.5393 L127.402335,143.5393 L126.107393,143.5393 L102.997665,143.5393 L126.306615,88.155642 L126.306615,88.155642 Z" fill="#FFFFFF"></path>
    </g>
  </symbol>
  <symbol version="1.1" xmlns="http://www.w3.org/2000/svg" xmlns:xlink="http://www.w3.org/1999/xlink" viewBox="0 0 18 17" id="certificates">
    <title>star</title>
    <desc>Created with Sketch.</desc>
    <g id="Icons" stroke="none" stroke-width="1" fill="none" fill-rule="evenodd">
      <g id="Rounded" transform="translate(-273.000000, -4323.000000)">
        <g id="Toggle" transform="translate(100.000000, 4266.000000)">
          <g id="-Round-/-Toggle-/-star" transform="translate(170.000000, 54.000000)">
            <g>
              <polygon id="Path" fill-rule="nonzero" points="0 0 24 0 24 24 0 24"></polygon>
              <path d="M12,17.27 L16.15,19.78 C16.91,20.24 17.84,19.56 17.64,18.7 L16.54,13.98 L20.21,10.8 C20.88,10.22 20.52,9.12 19.64,9.05 L14.81,8.64 L12.92,4.18 C12.58,3.37 11.42,3.37 11.08,4.18 L9.19,8.63 L4.36,9.04 C3.48,9.11 3.12,10.21 3.79,10.79 L7.46,13.97 L6.36,18.69 C6.16,19.55 7.09,20.23 7.85,19.77 L12,17.27 Z" id="🔹-Icon-Color" fill="#181818"></path>
            </g>
          </g>
        </g>
      </g>
    </g>
  </symbol>
  <symbol version="1.1" id="close" xmlns="http://www.w3.org/2000/svg" xmlns:xlink="http://www.w3.org/1999/xlink" x="0px" y="0px" xml:space="preserve" viewBox="0 0 60.963 60.842">
    <path d="M59.595,52.861L37.094,30.359L59.473,7.98c1.825-1.826,1.825-4.786,0-6.611
	c-1.826-1.825-4.785-1.825-6.611,0L30.483,23.748L8.105,1.369c-1.826-1.825-4.785-1.825-6.611,0c-1.826,1.826-1.826,4.786,0,6.611
	l22.378,22.379L1.369,52.861c-1.826,1.826-1.826,4.785,0,6.611c0.913,0.913,2.109,1.369,3.306,1.369s2.393-0.456,3.306-1.369
	l22.502-22.502l22.501,22.502c0.913,0.913,2.109,1.369,3.306,1.369s2.393-0.456,3.306-1.369
	C61.42,57.647,61.42,54.687,59.595,52.861z"></path>
  </symbol>
  <symbol xmlns="http://www.w3.org/2000/svg" viewBox="0 0 662.5 654.9" id="codewars">
    <path fill="#b1361e" d="M321.7 550.8a21 21 0 0112.2-3.6 21 21 0 0117.7 10.5 24.1 24.1 0 0117.8-7.2 24 24 0 0115.7 6.3 26.6 26.6 0 0126.3-19.7 26.5 26.5 0 019.7 2.1v.6c.4-15.7 13-28.2 28.4-28.7a35.5 35.5 0 01-3.3-19.7c1.5-12.3 9.1-22.4 19.4-27.7l.1.1c-5.3-5.5-8.5-13-8.3-21.3a29.6 29.6 0 016.2-17.5 27.3 27.3 0 01-12.1-33.5 24.5 24.5 0 01-22-25 24.7 24.7 0 01.3-3.8 19.8 19.8 0 01-4.2.4 19.8 19.8 0 01-18.7-15.3 17.7 17.7 0 01-10.3 3c-8.2-.3-15-6-16.8-13.7a11.2 11.2 0 01-5.8 1.4 11.2 11.2 0 01-4.8-1.2v-.2a36.4 36.4 0 01-9.7 16 11.2 11.2 0 015.2 5 11.3 11.3 0 01-.2 10.6 17.8 17.8 0 018.8 29.8 19.7 19.7 0 019.6 9c5 9.7 1.1 21.6-8.6 26.6a24.5 24.5 0 015.3 7c6.2 12.1 1.5 27-10.6 33a24.6 24.6 0 01-6 2.2v.1a27.3 27.3 0 01-11.8 36.8 27.1 27.1 0 01-14.7 2.9 29.7 29.7 0 01-17.7 29 17.2 17.2 0 013 5.6.7.7 0 01-.1 0z"></path>
    <path fill="#b1361e" d="M623.8 10H38.7A28.7 28.7 0 0010 38.7v577.5a28.7 28.7 0 0028.7 28.7h585.1a28.7 28.7 0 0028.7-28.7V38.7A28.7 28.7 0 00623.8 10zm-26.5 388.8c-3.8 6-9.8 10-16.2 11.6a24.2 24.2 0 01-21.5 39.7 21.8 21.8 0 00-.2-1.1 21 21 0 01-28.8 23.4 17.1 17.1 0 01-2.6 7.5c-2.7 4.3-7 7-11.5 7.7a35.6 35.6 0 01.6 12.2 35.7 35.7 0 01-39.6 31.3h1a29.4 29.4 0 011.5 10.2 29.5 29.5 0 01-30.2 28.7 29.4 29.4 0 01-12.6-3.2 26.6 26.6 0 01-45.4 15.6 24.2 24.2 0 01-45.1 2 21 21 0 01-34.1-13.2 17.1 17.1 0 01-7.8 1.7c-8.7-.2-15.8-7-16.6-15.5l.1-.2a35.5 35.5 0 01-16.9 14 35.7 35.7 0 01-46-18.9 29.4 29.4 0 01-8.2 6.2 29.5 29.5 0 01-39.6-12.8 29.3 29.3 0 01-3.3-12.6 26.6 26.6 0 01-35.3-32.4 24.2 24.2 0 01-23.4-38.6 21 21 0 01-4.7-36.3 17.1 17.1 0 01-5.2-6 17.2 17.2 0 01.3-16.3l.5.1a35.5 35.5 0 01-13.3-6.4 35.7 35.7 0 01-7-49.4 29.4 29.4 0 01-9.4-3.9 29.5 29.5 0 01-9-40.7 29.3 29.3 0 019.3-9.1 26.6 26.6 0 0110-47 24.2 24.2 0 0121.6-39.6l.1 1.1a21 21 0 0128.8-23.5 17.1 17.1 0 012.6-7.5c2.7-4.2 7-6.9 11.6-7.7a35.6 35.6 0 01-.7-12.1 35.7 35.7 0 0138.7-31.4 29.4 29.4 0 01-1.6-10.1c.5-16.3 14-29.2 30.2-28.7a29.3 29.3 0 0112.6 3.1 26.6 26.6 0 0145.4-15.5 24.2 24.2 0 0145.1-2.1 21 21 0 0134.1 13.2 17.1 17.1 0 017.8-1.6c8.8.2 15.8 7 16.7 15.4l-.2.3a35.4 35.4 0 0116.9-14.1c18-7.3 38.4 1.2 46 19A29.4 29.4 0 01451 99a29.5 29.5 0 0139.7 12.8 29.3 29.3 0 013.2 12.6 26.6 26.6 0 0135.4 32.5 24.2 24.2 0 0123.4 38.5 21 21 0 014.7 36.3 17.1 17.1 0 015.1 6 17.2 17.2 0 01-.3 16.4 35.5 35.5 0 0112.9 6.3 35.7 35.7 0 016.9 49.3 29.4 29.4 0 019.4 4 29.5 29.5 0 019 40.6 29.3 29.3 0 01-9.2 9.2 26.6 26.6 0 016.1 35.3z"></path>
    <path fill="#b1361e" d="M316.6 99.8a24.1 24.1 0 01-17.8 7.2 24 24 0 01-15.6-6.2 26.6 26.6 0 01-26.4 19.6 26.5 26.5 0 01-9.7-2 29.4 29.4 0 01-28.4 28 35.5 35.5 0 013.3 19.7 35.7 35.7 0 01-19.4 27.7c5.3 5.5 8.4 13 8.2 21.3a29.6 29.6 0 01-6.2 17.4c8.6 4.8 14.2 14 14 24.5a27.2 27.2 0 01-1.9 9 24.5 24.5 0 0122 25.1 24.7 24.7 0 01-.3 3.7 19.8 19.8 0 014.2-.3c9.2.2 16.8 6.7 18.8 15.3a17.7 17.7 0 0110.2-3c8.3.2 15 6 16.9 13.7a11.2 11.2 0 0110.2-.4 36.2 36.2 0 018.1-16.9 11.2 11.2 0 01-3.2-3.8 11.3 11.3 0 01.1-10.5A17.8 17.8 0 01295 259a19.7 19.7 0 01-9.6-9 19.8 19.8 0 0110.3-27.4 20 20 0 00-1.6.7 24.5 24.5 0 01-5.4-7 24.5 24.5 0 0116.7-35.2v-.1a27.3 27.3 0 0111.7-36.7 27.1 27.1 0 0114.8-3 29.7 29.7 0 0116-28.2 30 30 0 011.6-.7 17.2 17.2 0 01-2.9-5.6 21 21 0 01-12.2 3.5 21 21 0 01-17.7-10.6zm214.7 217a35.7 35.7 0 01-13.7-31c-7.4 1.7-15.5.6-22.4-3.9a29.6 29.6 0 01-11.8-14.3 27.3 27.3 0 01-28.1-.7 27.2 27.2 0 01-6.9-6.3c-7.6 10.2-21.9 13-32.8 6a24.8 24.8 0 01-3-2.2 19.8 19.8 0 01-1.8 3.8 19.8 19.8 0 01-22.8 8.1 17.7 17.7 0 01-2.8 10.3c-4.4 7-12.9 9.8-20.4 7.4a11.2 11.2 0 01-1.7 5.7c-.6.9-1.3 1.7-2 2.3a36.3 36.3 0 018.4 15.1 11.2 11.2 0 015-1.1 11.3 11.3 0 019.2 5.2 17.8 17.8 0 0130.4 6.5 19.7 19.7 0 0112.5-4.1c11 .2 19.5 9.3 19.3 20.2a19.8 19.8 0 01-.2 2l.2-1.9a24.5 24.5 0 018.7-1.4 24.5 24.5 0 0124 25.2 24.6 24.6 0 01-1 6.3c15.1.4 27 12.9 26.6 28a27.1 27.1 0 01-4.5 14.3A29.7 29.7 0 01517 444a29.7 29.7 0 01-2 9.7l.1-.2 2.7.5a21 21 0 013.3-12.3 21 21 0 0118.2-9.7 24.1 24.1 0 013-19 24 24 0 0113.5-10 26.6 26.6 0 01-3.3-32.8 26.5 26.5 0 016.9-7.2 29.4 29.4 0 01-9.4-38.9 35.5 35.5 0 01-18.6-7.3z"></path>
    <path fill="#b1361e" d="M532.7 236.4a17.2 17.2 0 012.2-2.9 21 21 0 01-8.9-9 21 21 0 01.8-20.6c-6.2-1.8-11.6-6-14.8-12.2a24 24 0 01-2-16.7 26.6 26.6 0 01-29.9-13.7 26.6 26.6 0 01-2.8-9.6 29.4 29.4 0 01-38.2-11.5 35.5 35.5 0 01-15.7 12.3 35.7 35.7 0 01-33.6-3.8v-.3a29.7 29.7 0 01-14.8 17.7 29.6 29.6 0 01-18.3 3 27.3 27.3 0 01-14.8 23.8 27.2 27.2 0 01-8.8 2.8c4.9 11.7 0 25.4-11.5 31.3a24.7 24.7 0 01-3.4 1.5 19.8 19.8 0 012.3 3.5c4.2 8.2 2.1 18-4.5 23.8a17.7 17.7 0 017.5 7.6c3.8 7.3 2 16-4 21.3a11.2 11.2 0 014.1 4.4c.5.9.8 1.8 1 2.7a36.3 36.3 0 0118-.4 11.3 11.3 0 011.5-3.8 11.3 11.3 0 019.1-5.2 17.8 17.8 0 0121.3-22.7 19.7 19.7 0 013-12.8c5.8-9.2 18-11.9 27.2-6a24.5 24.5 0 013.4-8.2 24.5 24.5 0 0134-7.5 24.5 24.5 0 014.8 4.1 27.3 27.3 0 0137.7-8.4 27.1 27.1 0 0110 11.3c9.5-6.4 22.3-7 32.5-.4a29.7 29.7 0 015.6 4.6zm-188 132a11.2 11.2 0 01-1.3-6.4 36.4 36.4 0 01-9 1.1c-3 0-5.9-.3-8.6-1a11.2 11.2 0 01-1.6 7.9 11.3 11.3 0 01-9.2 5.2 17.8 17.8 0 01-21.2 22.6 19.7 19.7 0 01-3 12.8 19.8 19.8 0 01-27.3 6 24.5 24.5 0 01-3.4 8.2 24.5 24.5 0 01-33.9 7.5 24.6 24.6 0 01-4.9-4.1v.1a27.3 27.3 0 01-37.7 8.3 27.1 27.1 0 01-10-11.2c-9.5 6.4-22.2 7-32.5.4a29.8 29.8 0 01-5.6-4.6 17.4 17.4 0 01-2.2 2.8 21 21 0 019 9 21 21 0 01-.9 20.6c6.2 1.8 11.7 6 14.8 12.2a24 24 0 012 16.7 26.6 26.6 0 0130 13.8 26.5 26.5 0 012.7 9.5 29.4 29.4 0 0138.3 11.5 35.5 35.5 0 0115.7-12.3c11.5-4.6 24-2.8 33.6 3.8a29.6 29.6 0 0114.7-17.4 29.6 29.6 0 0118.3-2.9c.1-9.7 5.5-19.1 14.8-23.9a27.3 27.3 0 018.9-2.8c-5-11.7 0-25.4 11.4-31.3a24.6 24.6 0 013.5-1.4 19.7 19.7 0 01-2.4-3.6c-4.2-8.2-2-17.9 4.5-23.7a17.7 17.7 0 01-7.5-7.6c-3.7-7.4-1.9-16.1 4-21.4a11.2 11.2 0 01-4-4.4z"></path>
    <path fill="#b1361e" d="M300.4 339.5a11.2 11.2 0 01-6.7 2 11.3 11.3 0 01-9.2-5.1 17.8 17.8 0 01-30.3-6.5 19.7 19.7 0 01-12.6 4c-10.9-.2-19.5-9.3-19.2-20.2a24.5 24.5 0 01-8.8 1.3 24.5 24.5 0 01-22.9-31.5h-.1c-15-.3-27-12.8-26.6-27.9a27.1 27.1 0 014.5-14.3 29.7 29.7 0 01-17.1-27.7 29.7 29.7 0 011.8-9.6 17.4 17.4 0 01-2.7-.5 21 21 0 01-3.3 12.3 21 21 0 01-18.2 9.7c1.6 6.3.7 13.1-3 19a24 24 0 01-13.4 10.1c8.3 8.7 10 22.2 3.2 32.8a26.5 26.5 0 01-6.8 7.2 29.4 29.4 0 019.4 38.8 35.5 35.5 0 0118.5 7.4 35.7 35.7 0 0113.7 30.9c7.5-1.7 15.5-.5 22.5 4a29.6 29.6 0 0111.7 14.2 27.3 27.3 0 0128.1.8 27.2 27.2 0 016.9 6.2c7.6-10.2 22-13 32.8-6a24.6 24.6 0 013 2.3 19.8 19.8 0 011.9-3.8c5-7.8 14.4-10.9 22.8-8.2A17.7 17.7 0 01283 371c4.5-7 13-9.7 20.4-7.3a11.2 11.2 0 016.6-10 36.4 36.4 0 01-9.6-14z"></path>
  </symbol>
  <symbol version="1.1" xmlns="http://www.w3.org/2000/svg" xmlns:xlink="http://www.w3.org/1999/xlink" viewBox="0 0 20 16" id="contacts">
    <title>mail</title>
    <desc>Created with Sketch.</desc>
    <g id="Icons" stroke="none" stroke-width="1" fill="none" fill-rule="evenodd">
      <g id="Rounded" transform="translate(-884.000000, -1486.000000)">
        <g id="Content" transform="translate(100.000000, 1428.000000)">
          <g id="-Round-/-Content-/-mail" transform="translate(782.000000, 54.000000)">
            <g transform="translate(0.000000, 0.000000)">
              <polygon id="Path" points="0 0 24 0 24 24 0 24"></polygon>
              <path d="M20,4 L4,4 C2.9,4 2,4.9 2,6 L2,18 C2,19.1 2.9,20 4,20 L20,20 C21.1,20 22,19.1 22,18 L22,6 C22,4.9 21.1,4 20,4 Z M19.6,8.25 L13.06,12.34 C12.41,12.75 11.59,12.75 10.94,12.34 L4.4,8.25 C4.15,8.09 4,7.82 4,7.53 C4,6.86 4.73,6.46 5.3,6.81 L12,11 L18.7,6.81 C19.27,6.46 20,6.86 20,7.53 C20,7.82 19.85,8.09 19.6,8.25 Z" id="🔹Icon-Color" fill="#181818"></path>
            </g>
          </g>
        </g>
      </g>
    </g>
  </symbol>
  <symbol enable-background="new 0 0 32 32" id="css" version="1.0" xml:space="preserve" xmlns="http://www.w3.org/2000/svg" xmlns:xlink="http://www.w3.org/1999/xlink" viewBox="0 0 32 32">
    <g>
      <polygon fill="#1F62AE" points="27.377,28.889 16.001,32 4.625,28.889 2,0 30.002,0  "></polygon>
      <polygon fill="#347DC6" points="16,2 16,29.75 25.232,27.008 27.688,2  "></polygon>
      <polygon fill="#FFFFFF" points="24.363,6 7.607,6 8,10 16,10 8.25,12.99 8.619,17 19.502,17 19.158,21 16,21.99 12.861,20.984    12.533,19 8.803,19 9.262,23.987 16,25.99 22.728,23.986 23.719,12.99 16.026,12.99 24,10  "></polygon>
    </g>
    <g></g>
    <g></g>
    <g></g>
    <g></g>
    <g></g>
    <g></g>
  </symbol>
  <symbol version="1.1" xmlns="http://www.w3.org/2000/svg" xmlns:xlink="http://www.w3.org/1999/xlink" preserveAspectRatio="xMidYMid" viewBox="0 0 256 256" id="cypress">
    <defs>
      <path d="M128,0 C198.749091,0 256,57.2509091 256,128 C256,198.749091 198.749091,256 128,256 C57.2509091,256 0,198.749091 0,128 C0,57.2509091 57.2509091,0 128,0 Z" id="path-1"></path>
      <path d="M128,3 C197.090909,3 253,58.9090909 253,128 C253,197.090909 197.090909,253 128,253 C58.9090909,253 3,197.090909 3,128 C3,58.9090909 58.9090909,3 128,3 Z" id="path-3"></path>
      <filter x="-2.4%" y="-2.4%" width="104.8%" height="104.8%" filterUnits="objectBoundingBox" id="filter-4">
        <feOffset dx="0" dy="0" in="SourceAlpha" result="shadowOffsetOuter1"></feOffset>
        <feGaussianBlur stdDeviation="2" in="shadowOffsetOuter1" result="shadowBlurOuter1"></feGaussianBlur>
        <feColorMatrix values="0 0 0 0 0   0 0 0 0 0   0 0 0 0 0  0 0 0 0.3 0" type="matrix" in="shadowBlurOuter1"></feColorMatrix>
      </filter>
    </defs>
    <g>
      <mask id="mask-2" fill="white">
        <use xlink:href="#path-1"></use>
      </mask>
      <g mask="url(#mask-2)">
        <use fill="black" fill-opacity="1" filter="url(#filter-4)" xlink:href="#path-3"></use>
        <use fill="#FFFFFF" fill-rule="evenodd" xlink:href="#path-3"></use>
      </g>
      <path d="M128,7.38596491 C194.666667,7.38596491 248.614035,61.3333333 248.614035,128 C248.614035,194.666667 194.666667,248.614035 128,248.614035 C61.3333333,248.614035 7.38596491,194.666667 7.38596491,128 C7.38596491,61.3333333 61.3333333,7.38596491 128,7.38596491 Z" fill="#5C5C5E" mask="url(#mask-2)"></path>
      <path d="M192.035088,181.070175 C187.649123,194.666667 181.070175,204.754386 171.859649,212.210526 C162.649123,219.666667 150.368421,223.614035 135.017544,224.929825 L131.947368,204.754386 C142.035088,203.438596 149.491228,201.245614 154.315789,197.736842 C156.070175,196.421053 159.578947,192.473684 159.578947,192.473684 L123.175439,75.8070175 L153.438596,75.8070175 L174.491228,163.087719 L196.859649,75.8070175 L226.245614,75.8070175 L192.035088,181.070175 Z M86.3333333,71.8596491 C93.3508772,71.8596491 99.9298246,72.7368421 105.192982,74.9298246 C110.894737,77.122807 116.157895,80.1929825 121.421053,84.5789474 L109.140351,101.245614 C105.631579,98.6140351 102.122807,96.8596491 99.0526316,95.5438596 C95.9824561,94.2280702 92.0350877,93.7894737 88.5263158,93.7894737 C73.6140351,93.7894737 66.1578947,105.192982 66.1578947,128.438596 C66.1578947,140.280702 67.9122807,148.614035 71.8596491,153.438596 C75.8070175,158.701754 81.0701754,160.894737 88.5263158,160.894737 C92.0350877,160.894737 95.5438596,160.45614 98.6140351,159.140351 C101.684211,157.824561 105.192982,156.070175 109.578947,153.438596 L121.859649,170.982456 C111.77193,179.315789 100.368421,183.263158 87.2105263,183.263158 C76.6842105,183.263158 67.9122807,181.070175 60.0175439,176.684211 C52.5614035,172.298246 46.4210526,165.719298 42.4736842,157.385965 C38.5263158,149.052632 36.3333333,139.403509 36.3333333,128 C36.3333333,117.035088 38.5263158,106.947368 42.4736842,98.6140351 C46.4210526,89.8421053 52.5614035,83.2631579 60.0175439,78.4385965 C67.4736842,74.4912281 76.245614,71.8596491 86.3333333,71.8596491 Z" fill="#FFFFFF" mask="url(#mask-2)"></path>
    </g>
  </symbol>
  <symbol xmlns="http://www.w3.org/2000/svg" viewBox="0 0 57.587 57.587" id="dark">
    <title></title>
    <path d="M41.446,32.535A16.647,16.647,0,0,1,25.163,12.361a16.655,16.655,0,1,0,20.1,19.717A16.7,16.7,0,0,1,41.446,32.535Z" fill="#7269af"></path>
  </symbol>
  <symbol xml:space="preserve" xmlns="http://www.w3.org/2000/svg" shape-rendering="geometricPrecision" text-rendering="geometricPrecision" image-rendering="optimizeQuality" fill-rule="evenodd" clip-rule="evenodd" viewBox="0 0 4335 4335" id="en">
    <path d="M542 119h3251c233 0 423 190 423 423v3251c0 233-190 423-423 423H542c-233 0-423-190-423-423V542c0-233 190-423 423-423zm1257 2849H851V1367h911v279h-569v377h529v278h-529v388h607v279zm1686 0h-350l-678-1036c-35-54-61-97-77-130h-5c6 55 9 140 9 255v911h-323V1367h372l653 1006c43 67 70 109 79 127h5c-7-39-10-113-10-221v-913h324v1601z" fill="#181818"></path>
  </symbol>
  <symbol fill="none" xmlns="http://www.w3.org/2000/svg" viewBox="0 0 48 48" id="figma">
    <path d="M0 24C0 10.7452 10.7452 0 24 0C37.2548 0 48 10.7452 48 24C48 37.2548 37.2548 48 24 48C10.7452 48 0 37.2548 0 24Z" fill="#333333"></path>
    <path d="M19.2 38.3999C21.851 38.3999 24 36.2509 24 33.5999V28.7999H19.2C16.549 28.7999 14.4 30.949 14.4 33.5999C14.4 36.2509 16.549 38.3999 19.2 38.3999Z" fill="#0ACF83"></path>
    <path d="M14.4 24C14.4 21.349 16.549 19.2 19.2 19.2H24V28.8H19.2C16.549 28.8 14.4 26.6509 14.4 24Z" fill="#A259FF"></path>
    <path d="M14.4 14.4C14.4 11.749 16.549 9.59998 19.2 9.59998H24V19.2H19.2C16.549 19.2 14.4 17.0509 14.4 14.4Z" fill="#F24E1E"></path>
    <path d="M24 9.59998H28.8C31.451 9.59998 33.6 11.749 33.6 14.4C33.6 17.0509 31.451 19.2 28.8 19.2H24V9.59998Z" fill="#FF7262"></path>
    <path d="M33.6 24C33.6 26.6509 31.451 28.8 28.8 28.8C26.149 28.8 24 26.6509 24 24C24 21.349 26.149 19.2 28.8 19.2C31.451 19.2 33.6 21.349 33.6 24Z" fill="#1ABCFE"></path>
  </symbol>
  <symbol version="1.1" xmlns="http://www.w3.org/2000/svg" xmlns:xlink="http://www.w3.org/1999/xlink" preserveAspectRatio="xMidYMid" viewBox="0 0 256 256" id="git">
    <g>
      <path d="M251.172245,116.593517 L139.398753,4.82845302 C132.966433,-1.60948434 122.525852,-1.60948434 116.085106,4.82845302 L92.8753863,28.0381721 L122.317995,57.4807809 C129.16041,55.1690784 137.005593,56.7195763 142.460425,62.1744081 C147.940536,67.6629464 149.479799,75.5755422 147.111919,82.4404282 L175.487156,110.815665 C182.352042,108.450594 190.273064,109.98143 195.755985,115.472777 C203.418591,123.132574 203.418591,135.547794 195.755985,143.213209 C188.09057,150.878624 175.67535,150.878624 168.007126,143.213209 C162.243319,137.443783 160.81922,128.977839 163.737639,121.877008 L137.275245,95.4146135 L137.272436,165.052198 C139.140337,165.979126 140.904309,167.212221 142.460425,168.762719 C150.123031,176.422516 150.123031,188.837736 142.460425,196.508768 C134.79501,204.171375 122.374173,204.171375 114.719993,196.508768 C107.057387,188.837736 107.057387,176.422516 114.719993,168.762719 C116.613174,166.872347 118.804095,165.442631 121.141077,164.481996 L121.141077,94.1955625 C118.804095,93.2405457 116.615983,91.8192558 114.719993,89.9148396 C108.914052,84.1173254 107.518042,75.5980132 110.492639,68.4690928 L81.4713611,39.4421974 L4.83125614,116.076685 C-1.60949009,122.52024 -1.60949009,132.960821 4.83125614,139.398759 L116.604747,251.166631 C123.039876,257.604569 133.477648,257.604569 139.921203,251.166631 L251.172245,139.9184 C257.61018,133.477654 257.61018,123.031455 251.172245,116.593517" fill="#DE4C36"></path>
    </g>
  </symbol>
  <symbol enable-background="new 0 0 32 32" id="html" version="1.0" xml:space="preserve" xmlns="http://www.w3.org/2000/svg" xmlns:xlink="http://www.w3.org/1999/xlink" viewBox="0 0 32 32">
    <g>
      <polygon fill="#E44D26" points="27.377,28.889 16.001,32 4.625,28.889 2,0 30.002,0  "></polygon>
      <polygon fill="#FF6C39" points="16,2 16,29.75 25.232,27.008 27.688,2  "></polygon>
      <polygon fill="#FFFFFF" points="24.363,6 7.607,6 8,10 8.619,17 19.503,17 19.148,20.984 16,21.99 12.857,20.984 12.648,19    8.803,19 9.262,23.987 16,25.99 22.728,23.986 23.718,13 12.252,13 12.002,10 24,10  "></polygon>
    </g>
    <g></g>
    <g></g>
    <g></g>
    <g></g>
    <g></g>
    <g></g>
  </symbol>
  <symbol version="1.1" xmlns="http://www.w3.org/2000/svg" xmlns:xlink="http://www.w3.org/1999/xlink" preserveAspectRatio="xMidYMid" viewBox="0 0 256 256" id="javascript">
    <g>
      <path d="M0,0 L256,0 L256,256 L0,256 L0,0 Z" fill="#F7DF1E"></path>
      <path d="M67.311746,213.932292 L86.902654,202.076241 C90.6821079,208.777346 94.1202286,214.447137 102.367086,214.447137 C110.272203,214.447137 115.256076,211.354819 115.256076,199.326883 L115.256076,117.528787 L139.313575,117.528787 L139.313575,199.666997 C139.313575,224.58433 124.707759,235.925943 103.3984,235.925943 C84.1532952,235.925943 72.9819429,225.958603 67.3113397,213.93026" fill="#181818"></path>
      <path d="M152.380952,211.354413 L171.969422,200.0128 C177.125994,208.433981 183.827911,214.619835 195.684368,214.619835 C205.652521,214.619835 212.009041,209.635962 212.009041,202.762159 C212.009041,194.513676 205.479416,191.592025 194.481168,186.78207 L188.468419,184.202565 C171.111213,176.81473 159.597308,167.53534 159.597308,147.944838 C159.597308,129.901308 173.344508,116.153295 194.825752,116.153295 C210.119924,116.153295 221.117765,121.48094 229.021663,135.400432 L210.29059,147.428775 C206.166146,140.040127 201.699556,137.119289 194.826159,137.119289 C187.78047,137.119289 183.312254,141.587098 183.312254,147.428775 C183.312254,154.646349 187.78047,157.568406 198.089956,162.036622 L204.103924,164.614095 C224.553448,173.378641 236.067352,182.313448 236.067352,202.418387 C236.067352,224.071924 219.055137,235.927975 196.200432,235.927975 C173.860978,235.927975 159.425829,225.274311 152.381359,211.354413" fill="#181818"></path>
    </g>
  </symbol>
  <symbol xmlns="http://www.w3.org/2000/svg" viewBox="0 0 57.587 57.587" id="light">
    <title></title>
    <circle cx="28.398" cy="28.696" fill="#f5ce42" r="16.948"></circle>
  </symbol>
  <symbol version="1.1" xmlns="http://www.w3.org/2000/svg" xmlns:xlink="http://www.w3.org/1999/xlink" viewBox="0 0 72 72" id="linkedin">
    <title>Linkedin</title>
    <desc>Created with Sketch.</desc>
    <defs></defs>
    <g id="Page-1" stroke="none" stroke-width="1" fill="none" fill-rule="evenodd">
      <g id="Social-Icons---Rounded" transform="translate(-376.000000, -267.000000)">
        <g id="Linkedin" transform="translate(376.000000, 267.000000)">
          <path d="M8,72 L64,72 C68.418278,72 72,68.418278 72,64 L72,8 C72,3.581722 68.418278,-8.11624501e-16 64,0 L8,0 C3.581722,8.11624501e-16 -5.41083001e-16,3.581722 0,8 L0,64 C5.41083001e-16,68.418278 3.581722,72 8,72 Z" id="Rounded" fill="#007EBB"></path>
          <path d="M62,62 L51.315625,62 L51.315625,43.8021149 C51.315625,38.8127542 49.4197917,36.0245323 45.4707031,36.0245323 C41.1746094,36.0245323 38.9300781,38.9261103 38.9300781,43.8021149 L38.9300781,62 L28.6333333,62 L28.6333333,27.3333333 L38.9300781,27.3333333 L38.9300781,32.0029283 C38.9300781,32.0029283 42.0260417,26.2742151 49.3825521,26.2742151 C56.7356771,26.2742151 62,30.7644705 62,40.051212 L62,62 Z M16.349349,22.7940133 C12.8420573,22.7940133 10,19.9296567 10,16.3970067 C10,12.8643566 12.8420573,10 16.349349,10 C19.8566406,10 22.6970052,12.8643566 22.6970052,16.3970067 C22.6970052,19.9296567 19.8566406,22.7940133 16.349349,22.7940133 Z M11.0325521,62 L21.769401,62 L21.769401,27.3333333 L11.0325521,27.3333333 L11.0325521,62 Z" fill="#FFFFFF"></path>
        </g>
      </g>
    </g>
  </symbol>
  <symbol version="1.1" xmlns="http://www.w3.org/2000/svg" xmlns:xlink="http://www.w3.org/1999/xlink" viewBox="0 0 20 17" id="main">
    <title>home</title>
    <desc>Created with Sketch.</desc>
    <g id="Icons" stroke="none" stroke-width="1" fill="none" fill-rule="evenodd">
      <g id="Rounded" transform="translate(-816.000000, -289.000000)">
        <g id="Action" transform="translate(100.000000, 100.000000)">
          <g id="-Round-/-Action-/-home" transform="translate(714.000000, 186.000000)">
            <g transform="translate(0.000000, 0.000000)">
              <polygon id="Path" points="0 0 24 0 24 24 0 24"></polygon>
              <path d="M10,19 L10,14 L14,14 L14,19 C14,19.55 14.45,20 15,20 L18,20 C18.55,20 19,19.55 19,19 L19,12 L20.7,12 C21.16,12 21.38,11.43 21.03,11.13 L12.67,3.6 C12.29,3.26 11.71,3.26 11.33,3.6 L2.97,11.13 C2.63,11.43 2.84,12 3.3,12 L5,12 L5,19 C5,19.55 5.45,20 6,20 L9,20 C9.55,20 10,19.55 10,19 Z" id="🔹Icon-Color" fill="#181818"></path>
            </g>
          </g>
        </g>
      </g>
    </g>
  </symbol>
  <symbol version="1.1" xmlns="http://www.w3.org/2000/svg" xmlns:xlink="http://www.w3.org/1999/xlink" preserveAspectRatio="xMidYMid" viewBox="0 0 256 100" id="npm">
    <g>
      <path d="M0,0 L0,85.4980695 L71.1660232,85.4980695 L71.1660232,99.8301158 L128,99.8301158 L128,85.4980695 L256,85.4980695 L256,0 L0,0 L0,0 Z" fill="#CB3837"></path>
      <path d="M42.5019305,14.3320463 L14.3320463,14.3320463 L14.3320463,28.6640927 L14.3320463,71.1660232 L42.5019305,71.1660232 L42.5019305,28.6640927 L56.8339768,28.6640927 L56.8339768,71.1660232 L71.1660232,71.1660232 L71.1660232,28.6640927 L71.1660232,14.3320463 L42.5019305,14.3320463 L42.5019305,14.3320463 Z" fill="#FFFFFF"></path>
      <path d="M85.4980695,14.3320463 L85.4980695,68.2007722 L85.4980695,71.1660232 L85.4980695,85.4980695 L114.162162,85.4980695 L114.162162,71.1660232 L142.332046,71.1660232 L142.332046,14.3320463 L85.4980695,14.3320463 L85.4980695,14.3320463 Z M128,56.8339768 L114.162162,56.8339768 L114.162162,28.6640927 L128,28.6640927 L128,56.8339768 L128,56.8339768 Z" fill="#FFFFFF"></path>
      <path d="M184.833977,14.3320463 L156.664093,14.3320463 L156.664093,28.6640927 L156.664093,71.1660232 L184.833977,71.1660232 L184.833977,28.6640927 L199.166023,28.6640927 L199.166023,71.1660232 L213.498069,71.1660232 L213.498069,28.6640927 L227.830116,28.6640927 L227.830116,71.1660232 L242.162162,71.1660232 L242.162162,28.6640927 L242.162162,15.3204633 L242.162162,14.3320463 L184.833977,14.3320463 L184.833977,14.3320463 Z" fill="#FFFFFF"></path>
    </g>
  </symbol>
  <symbol version="1.1" id="photoshop" xmlns="http://www.w3.org/2000/svg" xmlns:xlink="http://www.w3.org/1999/xlink" x="0px" y="0px" xml:space="preserve" viewBox="0 0 240 234">
    <g id="Layer_2_1_">
      <g id="Surfaces">
        <g id="Photo_Surface">
          <g id="Outline_no_shadow">
            <path d="M42.5,0h155C221,0,240,19,240,42.5v149c0,23.5-19,42.5-42.5,42.5h-155C19,234,0,215,0,191.5v-149
					C0,19,19,0,42.5,0z"></path>
          </g>
        </g>
      </g>
      <g id="Outlined_Mnemonics_Logos">
        <g id="Ps">
          <path d="M54,164.1V61.2c0-0.7,0.3-1.1,1-1.1c1.7,0,3.3,0,5.6-0.1c2.4-0.1,4.9-0.1,7.6-0.2c2.7-0.1,5.6-0.1,8.7-0.2
				c3.1-0.1,6.1-0.1,9.1-0.1c8.2,0,15,1,20.6,3.1c5,1.7,9.6,4.5,13.4,8.2c3.2,3.2,5.7,7.1,7.3,11.4c1.5,4.2,2.3,8.5,2.3,13
				c0,8.6-2,15.7-6,21.3c-4,5.6-9.6,9.8-16.1,12.2c-6.8,2.5-14.3,3.4-22.5,3.4c-2.4,0-4,0-5-0.1c-1-0.1-2.4-0.1-4.3-0.1v32.1
				c0.1,0.7-0.4,1.3-1.1,1.4c-0.1,0-0.2,0-0.4,0H55.2C54.4,165.4,54,165,54,164.1z M75.8,79.4V113c1.4,0.1,2.7,0.2,3.9,0.2H85
				c3.9,0,7.8-0.6,11.5-1.8c3.2-0.9,6-2.8,8.2-5.3c2.1-2.5,3.1-5.9,3.1-10.3c0.1-3.1-0.7-6.2-2.3-8.9c-1.7-2.6-4.1-4.6-7-5.7
				c-3.7-1.5-7.7-2.1-11.8-2c-2.6,0-4.9,0-6.8,0.1C77.9,79.2,76.5,79.3,75.8,79.4L75.8,79.4z"></path>
          <path d="M192,106.9c-3-1.6-6.2-2.7-9.6-3.4c-3.7-0.8-7.4-1.3-11.2-1.3c-2-0.1-4.1,0.2-6,0.7c-1.3,0.3-2.4,1-3.1,2
				c-0.5,0.8-0.8,1.8-0.8,2.7c0,0.9,0.4,1.8,1,2.6c0.9,1.1,2.1,2,3.4,2.7c2.3,1.2,4.7,2.3,7.1,3.3c5.4,1.8,10.6,4.3,15.4,7.3
				c3.3,2.1,6,4.9,7.9,8.3c1.6,3.2,2.4,6.7,2.3,10.3c0.1,4.7-1.3,9.4-3.9,13.3c-2.8,4-6.7,7.1-11.2,8.9c-4.9,2.1-10.9,3.2-18.1,3.2
				c-4.6,0-9.1-0.4-13.6-1.3c-3.5-0.6-7-1.7-10.2-3.2c-0.7-0.4-1.2-1.1-1.1-1.9v-17.4c0-0.3,0.1-0.7,0.4-0.9
				c0.3-0.2,0.6-0.1,0.9,0.1c3.9,2.3,8,3.9,12.4,4.9c3.8,1,7.8,1.5,11.8,1.5c3.8,0,6.5-0.5,8.3-1.4c1.6-0.7,2.7-2.4,2.7-4.2
				c0-1.4-0.8-2.7-2.4-4c-1.6-1.3-4.9-2.8-9.8-4.7c-5.1-1.8-9.8-4.2-14.2-7.2c-3.1-2.2-5.7-5.1-7.6-8.5c-1.6-3.2-2.4-6.7-2.3-10.2
				c0-4.3,1.2-8.4,3.4-12.1c2.5-4,6.2-7.2,10.5-9.2c4.7-2.4,10.6-3.5,17.7-3.5c4.1,0,8.3,0.3,12.4,0.9c3,0.4,5.9,1.2,8.6,2.3
				c0.4,0.1,0.8,0.5,1,0.9c0.1,0.4,0.2,0.8,0.2,1.2v16.3c0,0.4-0.2,0.8-0.5,1C192.9,107.1,192.4,107.1,192,106.9z"></path>
        </g>
      </g>
    </g>
  </symbol>
  <symbol xmlnsDc="http://purl.org/dc/elements/1.1/" xmlnsCc="http://creativecommons.org/ns#" xmlnsRdf="http://www.w3.org/1999/02/22-rdf-syntax-ns#" xmlnsSvg="http://www.w3.org/2000/svg" xmlns="http://www.w3.org/2000/svg" xmlnsSodipodi="http://sodipodi.sourceforge.net/DTD/sodipodi-0.dtd" xmlnsInkscape="http://www.inkscape.org/namespaces/inkscape" version="1.1" id="portfolio" inkscapeVersion="0.92.4 (5da689c313, 2019-01-14)" sodipodiDocname="5. Briefcase.svg" viewBox="0 0 6.3499999 6.3500002">
    <defs id="defs2">
      <pattern y="0" x="0" height="6" width="6" patternUnits="userSpaceOnUse" id="EMFhbasepattern"></pattern>
      <pattern y="0" x="0" height="6" width="6" patternUnits="userSpaceOnUse" id="EMFhbasepattern-3"></pattern>
      <pattern y="0" x="0" height="6" width="6" patternUnits="userSpaceOnUse" id="EMFhbasepattern-2"></pattern>
      <pattern y="0" x="0" height="6" width="6" patternUnits="userSpaceOnUse" id="EMFhbasepattern-1"></pattern>
    </defs>
    <sodipodi:namedview id="base" pagecolor="#ffffff" bordercolor="#666666" borderopacity="1.0" inkscapePageopacity="0.0" inkscapePageshadow="2" inkscapeZoom="7.9999995" inkscapeCx="5.8652195" inkscapeCy="16.605566" inkscapeDocumentUnits="px" inkscapeCurrentLayer="layer1" showgrid="false" units="px" inkscapeWindowWidth="1280" inkscapeWindowHeight="658" inkscapeWindowX="-8" inkscapeWindowY="-8" inkscapeWindowMaximized="1" showguides="true" guidecolor="#af0000" guideopacity="0.49803922" guidehicolor="#ff4b4b" guidehiopacity="0.49803922" inkscapeSnapGlobal="false">
      <inkscape:grid type="xygrid" id="grid815" empspacing="1" originx="0" originy="0" spacingx="0" spacingy="0" snapvisiblegridlinesonly="true" visible="true" enabled="true" dotted="false"></inkscape:grid>
    </sodipodi:namedview>
    <metadata id="metadata5">
      <rdf:RDF>
        <cc:Work rdfAbout="">
          <dc:format>image/svg+xml</dc:format>
          <dc:type rdfResource="http://purl.org/dc/dcmitype/StillImage"></dc:type>
          <dc:title></dc:title>
        </cc:Work>
      </rdf:RDF>
    </metadata>
    <g inkscapeLabel="Guides" inkscapeGroupmode="layer" id="layer1" transform="translate(0,-290.64999)">
      <path d="M 10.199219 4.1425781 C 9.7243053 4.1425781 9.2904578 4.2967169 8.9414062 4.59375 C 8.5923555 4.8904429 8.3203125 5.3698883 8.3203125 5.9257812 C 8.3203125 5.9486178 8.327283 5.9695472 8.328125 5.9921875 L 3.7382812 5.9921875 C 3.3515464 5.9921875 3.0933497 6.2527821 3.0546875 6.6386719 L 3.0546875 8.8964844 L 9.9550781 11.507812 C 10.257648 10.927844 10.850025 10.526522 11.537109 10.513672 C 11.548864 10.509892 11.558445 10.505859 11.570312 10.505859 L 12.382812 10.505859 C 12.396193 10.505859 12.408647 10.513672 12.421875 10.513672 C 13.108059 10.52879 13.699203 10.930994 14 11.511719 L 20.962891 8.7558594 L 20.962891 6.6757812 C 20.945505 6.2695576 20.667686 5.9921875 20.263672 5.9921875 L 15.677734 5.9921875 C 15.678576 5.9695482 15.685547 5.9486178 15.685547 5.9257812 C 15.685547 5.3698883 15.413477 4.8906697 15.064453 4.59375 C 14.715429 4.2970571 14.281599 4.1425781 13.806641 4.1425781 L 10.199219 4.1425781 z M 10.199219 5.4941406 L 13.806641 5.4941406 C 14.062023 5.4941406 14.272096 5.5928873 14.392578 5.6953125 C 14.513058 5.7977377 14.529297 5.8671986 14.529297 5.9257812 C 14.529297 5.9507616 14.519067 5.9701482 14.515625 5.9921875 C 14.861875 5.9923583 15.062443 5.9918363 15.53125 5.9921875 C 15.421225 6.1835876 15.26206 6.3509737 15.072266 6.4746094 C 14.720085 6.7036487 14.281553 6.8144531 13.806641 6.8144531 L 10.199219 6.8144531 C 9.7242596 6.8144531 9.2857474 6.7040267 8.9335938 6.4746094 C 8.7438144 6.3510349 8.584639 6.183605 8.4746094 5.9921875 C 9.0597484 5.9921875 9.0611386 5.9922668 9.4902344 5.9921875 C 9.4867938 5.9701446 9.4765625 5.9506769 9.4765625 5.9257812 C 9.4765625 5.8671986 9.4928542 5.7977377 9.6132812 5.6953125 C 9.7337349 5.5928873 9.9437908 5.4941406 10.199219 5.4941406 z M 20.96875 9.96875 L 14.214844 12.644531 L 14.214844 13.226562 C 14.214844 14.2425 13.3868 15.080078 12.380859 15.080078 L 11.570312 15.080078 C 10.564371 15.080078 9.7382814 14.242463 9.7382812 13.226562 L 9.7382812 12.640625 L 3.0332031 10.097656 L 3.0332031 18.878906 C 3.0332031 19.226623 3.3453599 19.597656 3.7363281 19.597656 L 20.265625 19.597656 C 20.656594 19.597656 20.96875 19.226396 20.96875 18.878906 L 20.96875 9.96875 z M 11.570312 11.638672 L 11.570312 11.640625 C 11.506276 11.640625 11.451436 11.660536 11.394531 11.671875 C 11.362972 11.679434 11.327987 11.674335 11.298828 11.689453 C 11.057664 11.783563 10.900635 12.005764 10.876953 12.298828 A 0.56149327 0.56701807 0 0 1 10.857422 12.40625 L 10.857422 13.230469 C 10.857422 13.652377 11.152607 13.949219 11.570312 13.949219 L 12.380859 13.949219 C 12.798561 13.949219 13.09375 13.652415 13.09375 13.230469 L 13.09375 12.408203 A 0.56149327 0.56701807 0 0 1 13.076172 12.306641 C 13.055158 12.008436 12.900378 11.783337 12.65625 11.689453 C 12.574877 11.659217 12.481973 11.638672 12.382812 11.638672 L 11.570312 11.638672 z " transform="matrix(0.26458334,0,0,0.26458334,0,290.64999)" id="path1278"></path>
    </g>
  </symbol>
  <symbol version="1.1" xmlns="http://www.w3.org/2000/svg" xmlns:xlink="http://www.w3.org/1999/xlink" preserveAspectRatio="xMidYMid" viewBox="0 0 256 228" id="react">
    <g>
      <path d="M210.483381,73.8236374 C207.827698,72.9095503 205.075867,72.0446761 202.24247,71.2267368 C202.708172,69.3261098 203.135596,67.4500894 203.515631,65.6059664 C209.753843,35.3248922 205.675082,10.9302478 191.747328,2.89849283 C178.392359,-4.80289661 156.551327,3.22703567 134.492936,22.4237776 C132.371761,24.2697233 130.244662,26.2241201 128.118477,28.2723861 C126.701777,26.917204 125.287358,25.6075897 123.876584,24.3549348 C100.758745,3.82852863 77.5866802,-4.82157937 63.6725966,3.23341515 C50.3303869,10.9571328 46.3792156,33.8904224 51.9945178,62.5880206 C52.5367729,65.3599011 53.1706189,68.1905639 53.8873982,71.068617 C50.6078941,71.9995641 47.4418534,72.9920277 44.4125156,74.0478303 C17.3093297,83.497195 0,98.3066828 0,113.667995 C0,129.533287 18.5815786,145.446423 46.8116526,155.095373 C49.0394553,155.856809 51.3511025,156.576778 53.7333796,157.260293 C52.9600965,160.37302 52.2875179,163.423318 51.7229345,166.398431 C46.3687351,194.597975 50.5500231,216.989464 63.8566899,224.664425 C77.6012619,232.590464 100.66852,224.443422 123.130185,204.809231 C124.905501,203.257196 126.687196,201.611293 128.472081,199.886102 C130.785552,202.113904 133.095375,204.222319 135.392897,206.199955 C157.14963,224.922338 178.637969,232.482469 191.932332,224.786092 C205.663234,216.837268 210.125675,192.78347 204.332202,163.5181 C203.88974,161.283006 203.374826,158.99961 202.796573,156.675661 C204.416503,156.196743 206.006814,155.702335 207.557482,155.188332 C236.905331,145.46465 256,129.745175 256,113.667995 C256,98.2510906 238.132466,83.3418093 210.483381,73.8236374 L210.483381,73.8236374 Z M204.118035,144.807565 C202.718197,145.270987 201.281904,145.718918 199.818271,146.153177 C196.578411,135.896354 192.205739,124.989735 186.854729,113.72131 C191.961041,102.721277 196.164656,91.9540963 199.313837,81.7638014 C201.93261,82.5215915 204.474374,83.3208483 206.923636,84.1643056 C230.613348,92.3195488 245.063763,104.377206 245.063763,113.667995 C245.063763,123.564379 229.457753,136.411268 204.118035,144.807565 L204.118035,144.807565 Z M193.603754,165.642007 C196.165567,178.582766 196.531475,190.282717 194.834536,199.429057 C193.309843,207.64764 190.243595,213.12715 186.452366,215.321689 C178.384612,219.991462 161.131788,213.921395 142.525146,197.909832 C140.392124,196.074366 138.243609,194.114502 136.088259,192.040261 C143.301619,184.151133 150.510878,174.979732 157.54698,164.793993 C169.922699,163.695814 181.614905,161.900447 192.218042,159.449363 C192.740247,161.555956 193.204126,163.621993 193.603754,165.642007 L193.603754,165.642007 Z M87.2761866,214.514686 C79.3938934,217.298414 73.1160375,217.378157 69.3211631,215.189998 C61.2461189,210.532528 57.8891498,192.554265 62.4682434,168.438039 C62.9927272,165.676183 63.6170041,162.839142 64.3365173,159.939216 C74.8234575,162.258154 86.4299951,163.926841 98.8353334,164.932519 C105.918826,174.899534 113.336329,184.06091 120.811247,192.08264 C119.178102,193.65928 117.551336,195.16028 115.933685,196.574699 C106.001303,205.256705 96.0479605,211.41654 87.2761866,214.514686 L87.2761866,214.514686 Z M50.3486141,144.746959 C37.8658105,140.48046 27.5570398,134.935332 20.4908634,128.884403 C14.1414664,123.446815 10.9357817,118.048415 10.9357817,113.667995 C10.9357817,104.34622 24.8334611,92.4562517 48.0123604,84.3748281 C50.8247961,83.3942121 53.7689223,82.4701001 56.8242337,81.6020363 C60.0276398,92.0224477 64.229889,102.917218 69.3011135,113.93411 C64.1642716,125.11459 59.9023288,136.182975 56.6674809,146.725506 C54.489347,146.099407 52.3791089,145.440499 50.3486141,144.746959 L50.3486141,144.746959 Z M62.7270678,60.4878073 C57.9160346,35.9004118 61.1112387,17.3525532 69.1516515,12.6982729 C77.7160924,7.74005624 96.6544653,14.8094222 116.614922,32.5329619 C117.890816,33.6657739 119.171723,34.8514442 120.456275,36.0781256 C113.018267,44.0647686 105.66866,53.1573386 98.6480514,63.0655695 C86.6081646,64.1815215 75.0831931,65.9741531 64.4868907,68.3746571 C63.8206914,65.6948233 63.2305903,63.0619242 62.7270678,60.4878073 L62.7270678,60.4878073 Z M173.153901,87.7550367 C170.620796,83.3796304 168.020249,79.1076627 165.369124,74.9523483 C173.537126,75.9849113 181.362914,77.3555864 188.712066,79.0329319 C186.505679,86.1041206 183.755673,93.4974728 180.518546,101.076741 C178.196419,96.6680702 175.740322,92.2229454 173.153901,87.7550367 L173.153901,87.7550367 Z M128.122121,43.8938899 C133.166461,49.3588189 138.218091,55.4603279 143.186789,62.0803968 C138.179814,61.8439007 133.110868,61.720868 128.000001,61.720868 C122.937434,61.720868 117.905854,61.8411667 112.929865,62.0735617 C117.903575,55.515009 122.99895,49.4217021 128.122121,43.8938899 L128.122121,43.8938899 Z M82.8018984,87.830679 C80.2715265,92.2183886 77.8609975,96.6393627 75.5753239,101.068539 C72.3906004,93.5156998 69.6661103,86.0886276 67.440586,78.9171899 C74.7446255,77.2826781 82.5335049,75.9461789 90.6495601,74.9332099 C87.9610684,79.1268011 85.3391054,83.4302106 82.8018984,87.8297677 L82.8018984,87.830679 L82.8018984,87.830679 Z M90.8833221,153.182899 C82.4979621,152.247395 74.5919739,150.979704 67.289757,149.390303 C69.5508242,142.09082 72.3354636,134.505173 75.5876271,126.789657 C77.8792246,131.215644 80.2993228,135.638441 82.8451877,140.03572 L82.8456433,140.03572 C85.4388987,144.515476 88.1255676,148.90364 90.8833221,153.182899 L90.8833221,153.182899 Z M128.424691,184.213105 C123.24137,178.620587 118.071264,172.434323 113.021912,165.780078 C117.923624,165.972373 122.921029,166.0708 128.000001,166.0708 C133.217953,166.0708 138.376211,165.953235 143.45336,165.727219 C138.468257,172.501308 133.434855,178.697141 128.424691,184.213105 L128.424691,184.213105 Z M180.622896,126.396409 C184.044571,134.195313 186.929004,141.741317 189.219234,148.9164 C181.796719,150.609693 173.782736,151.973534 165.339049,152.986959 C167.996555,148.775595 170.619884,144.430263 173.197646,139.960532 C175.805484,135.438399 178.28163,130.90943 180.622896,126.396409 L180.622896,126.396409 Z M163.724586,134.496971 C159.722835,141.435557 155.614455,148.059271 151.443648,154.311611 C143.847063,154.854776 135.998946,155.134562 128.000001,155.134562 C120.033408,155.134562 112.284171,154.887129 104.822013,154.402745 C100.48306,148.068386 96.285368,141.425078 92.3091341,134.556664 L92.3100455,134.556664 C88.3442923,127.706935 84.6943232,120.799333 81.3870228,113.930466 C84.6934118,107.045648 88.3338117,100.130301 92.276781,93.292874 L92.2758697,93.294241 C96.2293193,86.4385872 100.390102,79.8276317 104.688954,73.5329157 C112.302398,72.9573964 120.109505,72.6571055 127.999545,72.6571055 L128.000001,72.6571055 C135.925583,72.6571055 143.742714,72.9596746 151.353879,73.5402067 C155.587114,79.7888993 159.719645,86.3784378 163.688588,93.2350031 C167.702644,100.168578 171.389978,107.037901 174.724618,113.77508 C171.400003,120.627999 167.720871,127.566587 163.724586,134.496971 L163.724586,134.496971 Z M186.284677,12.3729198 C194.857321,17.3165548 198.191049,37.2542268 192.804953,63.3986692 C192.461372,65.0669011 192.074504,66.7661189 191.654369,68.4881206 C181.03346,66.0374921 169.500286,64.2138746 157.425315,63.0810626 C150.391035,53.0639249 143.101577,43.9572289 135.784778,36.073113 C137.751934,34.1806885 139.716356,32.3762092 141.672575,30.673346 C160.572216,14.2257007 178.236518,7.73185406 186.284677,12.3729198 L186.284677,12.3729198 Z M128.000001,90.8080696 C140.624975,90.8080696 150.859926,101.042565 150.859926,113.667995 C150.859926,126.292969 140.624975,136.527922 128.000001,136.527922 C115.375026,136.527922 105.140075,126.292969 105.140075,113.667995 C105.140075,101.042565 115.375026,90.8080696 128.000001,90.8080696 L128.000001,90.8080696 Z" fill="#00D8FF"></path>
    </g>
  </symbol>
  <symbol version="1.1" xmlns="http://www.w3.org/2000/svg" xmlns:xlink="http://www.w3.org/1999/xlink" preserveAspectRatio="xMidYMid" viewBox="0 0 256 244" id="redux">
    <g>
      <path d="M177.380953,169.732752 C186.828305,168.755405 193.995262,160.610839 193.669491,150.83736 C193.34372,141.063881 185.199451,133.245097 175.426328,133.245097 L174.774787,133.245097 C164.675893,133.57088 156.857395,142.041229 157.183166,152.14049 C157.508937,157.02723 159.463561,161.262404 162.395498,164.194448 C151.319292,186.021884 134.379213,201.985233 108.969093,215.342321 C91.7032429,224.464235 73.7858511,227.722061 55.8684592,225.441583 C41.208775,223.486887 29.8067984,216.971234 22.6398417,206.220408 C12.2151773,190.257058 11.237865,172.990579 20.0336756,155.724099 C26.22332,143.344359 35.9964428,134.222445 42.1860873,129.661488 C40.8830043,125.426314 38.9283797,118.259096 37.9510674,113.046574 C-9.28569288,147.253751 -4.39913147,193.514885 9.934782,215.342321 C20.6852171,231.631453 42.5118581,241.730715 66.6188943,241.730715 C73.1343096,241.730715 79.6497248,241.079149 86.16514,239.450236 C127.863797,231.30567 159.463561,206.54619 177.380953,169.732752 Z M234.716607,129.335706 C209.958029,100.341051 173.471704,84.3777023 131.773046,84.3777023 L126.560714,84.3777023 C123.628777,78.5136149 117.439133,74.6042233 110.597947,74.6042233 L109.946406,74.6042233 C99.8475119,74.9300059 92.0290137,83.4003544 92.3547844,93.499616 C92.6805552,103.273095 100.824824,111.091878 110.597947,111.091878 L111.249489,111.091878 C118.416445,110.766096 124.60609,106.205139 127.212256,100.015269 L133.07613,100.015269 C157.834707,100.015269 181.290202,107.182487 202.465302,121.19114 C218.75384,131.941967 230.481587,145.95062 236.997002,162.891317 C242.535105,176.574188 242.209334,189.931276 236.345461,201.333668 C227.223879,218.600148 211.912654,228.047844 191.714866,228.047844 C178.684036,228.047844 166.304747,224.138452 159.789332,221.206409 C156.205854,224.464235 149.690438,229.676757 145.129648,232.934584 C159.13779,239.450236 173.471704,243.033845 187.154076,243.033845 C218.428069,243.033845 241.557793,225.767366 250.353603,208.500886 C259.800955,189.605493 259.149414,157.02723 234.716607,129.335706 Z M69.2250604,175.271057 C69.5508312,185.044536 77.6951002,192.86332 87.468223,192.86332 L88.1197645,192.86332 C98.2186581,192.537537 106.037156,184.067188 105.711386,173.967927 C105.385615,164.194448 97.2413458,156.375664 87.468223,156.375664 L86.8166815,156.375664 C86.16514,156.375664 85.1878277,156.375664 84.5362862,156.701447 C71.179685,134.548228 65.6415821,110.440313 67.5962066,84.3777023 C68.8992897,64.8307442 75.4147049,47.8900472 86.8166815,33.881394 C96.2640336,21.8274365 114.507196,15.9633491 126.886485,15.6375664 C161.418186,14.9860012 176.07787,57.9893089 177.055182,75.2557885 C181.290202,76.2331364 188.457159,78.5136149 193.34372,80.142528 C189.434471,27.3657413 156.857395,0 125.583402,0 C96.2640336,0 69.2250604,21.1758712 58.4746253,52.4510041 C43.4891703,94.1511813 53.2622932,134.222445 71.5054558,165.823361 C69.876602,168.103839 68.8992897,171.687448 69.2250604,175.271057 Z" fill="#764ABC"></path>
    </g>
  </symbol>
  <symbol xmlns="http://www.w3.org/2000/svg" viewBox="0 0 552.85 198.67" id="rsschool">
    <title>rs_school</title>
    <g>
      <g>
        <path d="M275.36 61.37l26.29-1.65q.86 6.41 3.48 9.76 4.28 5.43 12.2 5.43 5.91 0 9.12-2.77a8.34 8.34 0 0 0 3.2-6.44 8.18 8.18 0 0 0-3-6.22q-3-2.74-14.15-5.19-18.18-4.08-25.93-10.86a21.84 21.84 0 0 1-7.81-17.26 23.44 23.44 0 0 1 4-13 26.47 26.47 0 0 1 12-9.64q8-3.51 22-3.51 17.14 0 26.14 6.38t10.71 20.28l-26.05 1.52q-1-6-4.36-8.78t-9.2-2.77c-3.21 0-5.63.69-7.25 2.05a6.25 6.25 0 0 0-2.44 5 5 5 0 0 0 2 3.84q1.95 1.77 9.27 3.3 18.12 3.9 26 7.9t11.4 9.91a25.12 25.12 0 0 1 3.57 13.24 28.37 28.37 0 0 1-4.75 15.86 29.83 29.83 0 0 1-13.3 11q-8.55 3.75-21.54 3.75-22.81 0-31.6-8.78t-10-22.35zM6.27 91V1.53h46.06q12.81 0 19.58 2.19a20.93 20.93 0 0 1 10.92 8.14A24.75 24.75 0 0 1 87 26.35a24.8 24.8 0 0 1-3.2 12.84A24.91 24.91 0 0 1 75.07 48a33.63 33.63 0 0 1-9.7 3.54 27.79 27.79 0 0 1 7.19 3.29A27.79 27.79 0 0 1 77 59.49 35.16 35.16 0 0 1 80.85 65l13.38 26H63L48.24 63.63q-2.81-5.31-5-6.9a11.63 11.63 0 0 0-6.78-2.07H34V91zM34 37.76h11.68A41 41 0 0 0 53 36.54a7.3 7.3 0 0 0 4.48-2.81 8.24 8.24 0 0 0 1.74-5.18 8.23 8.23 0 0 0-2.75-6.65q-2.74-2.32-10.31-2.32H34zM0 167.56l26.29-1.64q.86 6.41 3.48 9.76Q34 181.11 42 181.11q5.91 0 9.12-2.78a8.34 8.34 0 0 0 3.2-6.44 8.2 8.2 0 0 0-3-6.22q-3-2.74-14.15-5.18-18.18-4.1-25.93-10.86a21.87 21.87 0 0 1-7.81-17.27 23.49 23.49 0 0 1 4-13 26.47 26.47 0 0 1 12-9.64q8-3.51 22-3.51 17.14 0 26.14 6.38t10.71 20.28l-26 1.53q-1-6-4.36-8.79t-9.19-2.74q-4.81 0-7.25 2a6.25 6.25 0 0 0-2.44 5 5 5 0 0 0 2 3.85q1.95 1.77 9.27 3.29 18.12 3.9 26 7.9t11.4 9.91a25.15 25.15 0 0 1 3.57 13.24 28.35 28.35 0 0 1-4.75 15.86 29.83 29.83 0 0 1-13.3 11q-8.55 3.75-21.54 3.75-22.81 0-31.6-8.78T0 167.56zm163-7.01l24.22 7.32a44.72 44.72 0 0 1-7.69 17 33.46 33.46 0 0 1-13 10.31q-7.78 3.47-19.8 3.47-14.58 0-23.82-4.23t-16-14.91q-6.72-10.67-6.71-27.31 0-22.18 11.8-34.11t33.4-11.92q16.91 0 26.57 6.84t14.36 21l-24.4 5.43a21 21 0 0 0-2.68-6 16 16 0 0 0-5.67-4.88 16.31 16.31 0 0 0-7.51-1.71q-9.39 0-14.39 7.56-3.8 5.61-3.79 17.61 0 14.86 4.52 20.38t12.69 5.51q7.92 0 12-4.45t5.9-12.91zm45.51-52.83h27.63V139h30.2v-31.28h27.75v89.43h-27.75V161h-30.2v36.18h-27.63zm102.78 44.77q0-21.88 12.2-34.1t34-12.2q22.32 0 34.4 12T404 151.76q0 15.69-5.28 25.72a37.54 37.54 0 0 1-15.25 15.61q-10 5.58-24.86 5.58-15.12 0-25-4.82a37.59 37.59 0 0 1-16.07-15.25q-6.26-10.42-6.25-26.11zm27.63.13q0 13.55 5 19.46t13.7 5.91q8.91 0 13.79-5.79t4.88-20.8q0-12.63-5.1-18.46t-13.82-5.82A16.78 16.78 0 0 0 344 133q-5.07 6-5.08 19.62z"></path>
        <path d="M392.28 152.49q0-21.88 12.2-34.1t34-12.2q22.34 0 34.41 12t12.07 33.58q0 15.69-5.27 25.72a37.6 37.6 0 0 1-15.25 15.61q-10 5.58-24.86 5.58-15.13 0-25-4.82a37.67 37.67 0 0 1-16.08-15.25q-6.22-10.43-6.22-26.12zm27.64.13q0 13.55 5 19.46t13.72 5.92q8.91 0 13.79-5.79t4.88-20.8q0-12.63-5.09-18.46t-13.82-5.82A16.77 16.77 0 0 0 425 133q-5.09 6-5.08 19.62z"></path>
        <path d="M482.08 107.72h27.64v67.41h43.13v22h-70.77z"></path>
      </g>
    </g>
  </symbol>
  <symbol xml:space="preserve" xmlns="http://www.w3.org/2000/svg" shape-rendering="geometricPrecision" text-rendering="geometricPrecision" image-rendering="optimizeQuality" fill-rule="evenodd" clip-rule="evenodd" viewBox="0 0 4335 4335" id="ru">
    <path d="M542 119h3251c233 0 423 190 423 423v3251c0 233-190 423-423 423H542c-233 0-423-190-423-423V542c0-233 190-423 423-423zm662 2277v558H863V1353h551c398 0 597 169 597 506 0 164-60 296-180 394-120 99-271 146-451 142h-176zm0-778v517h148c201 0 301-87 301-262 0-170-99-255-298-255h-151zm2269-265-500 1100c-102 225-198 369-286 433-89 64-185 96-289 96-84 0-153-12-207-37v-313c61 39 123 59 188 59 94 0 177-77 249-229l-527-1108h388l279 666c14 32 26 74 37 127h2c8-37 21-79 39-124l268-669h360z" fill="#181818"></path>
  </symbol>
  <symbol version="1.1" xmlns="http://www.w3.org/2000/svg" xmlns:xlink="http://www.w3.org/1999/xlink" preserveAspectRatio="xMidYMid" viewBox="0 0 256 192" id="sass">
    <g fill="#CD6799">
      <path d="M220.281239,110.513661 C211.374863,110.560291 203.634244,112.705282 197.152641,115.876138 C194.774499,111.166485 192.396357,106.969763 191.976685,103.892168 C191.510383,100.301639 190.95082,98.1100182 191.510383,93.8200364 C192.069945,89.5300546 194.587978,83.4214936 194.541348,82.9551913 C194.494718,82.4888889 193.981785,80.2972678 188.852459,80.2506375 C183.723133,80.2040073 179.29326,81.2298725 178.780328,82.5821494 C178.267395,83.9344262 177.28816,87.0120219 176.635337,90.182878 C175.749362,94.8459016 166.376685,111.492896 161.014208,120.21275 C159.288889,116.808743 157.796721,113.824408 157.47031,111.446266 C157.004007,107.855738 156.444444,105.664117 157.004007,101.374135 C157.56357,97.084153 160.081603,90.975592 160.034973,90.5092896 C159.988342,90.0429872 159.47541,87.8513661 154.346084,87.8047359 C149.216758,87.7581056 144.786885,88.7839709 144.273953,90.1362477 C143.76102,91.4885246 143.201457,94.6593807 142.128962,97.7369763 C141.056466,100.814572 128.606193,128.606193 125.342077,135.78725 C123.663388,139.471038 122.217851,142.408743 121.191985,144.413843 L121.191985,144.413843 C121.191985,144.413843 121.145355,144.553734 121.005464,144.786885 C120.11949,146.512204 119.606557,147.444809 119.606557,147.444809 C119.606557,147.444809 119.606557,147.444809 119.606557,147.491439 C118.907104,148.750455 118.16102,149.916211 117.787978,149.916211 C117.508197,149.916211 116.995264,146.558834 117.881239,141.989071 C119.746448,132.336612 124.176321,117.321676 124.12969,116.808743 C124.12969,116.528962 124.969035,113.917668 121.238616,112.565392 C117.601457,111.213115 116.295811,113.451366 115.969399,113.451366 C115.642987,113.451366 115.409836,114.24408 115.409836,114.24408 C115.409836,114.24408 119.466667,97.3639344 107.669217,97.3639344 C100.301639,97.3639344 90.1362477,105.430965 85.1001821,112.705282 C81.929326,114.430601 75.1679417,118.11439 67.940255,122.07796 C65.189071,123.616758 62.3446266,125.155556 59.6867031,126.601093 C59.5001821,126.414572 59.3136612,126.181421 59.1271403,125.9949 C44.8582878,110.746812 18.4655738,99.9752277 19.5846995,79.5045537 C20.0043716,72.0437158 22.5690346,52.4590164 70.2717668,28.6775956 C109.534426,9.32604736 140.776685,14.6885246 146.185792,26.579235 C153.926412,43.5526412 129.445537,75.0746812 88.8772313,79.6444444 C73.3959927,81.3697632 65.2823315,75.4010929 63.2306011,73.1628415 C61.0856102,70.8313297 60.7591985,70.691439 59.9664845,71.1577413 C58.6608379,71.8571949 59.5001821,73.9555556 59.9664845,75.1679417 C61.1788707,78.3387978 66.168306,83.9344262 74.6083789,86.6856102 C82.0692168,89.1103825 100.208379,90.4626594 122.17122,81.9759563 C146.745355,72.463388 165.957013,46.0240437 160.314754,23.8746812 C154.672495,1.3989071 117.368306,-6.01530055 82.0692168,6.52823315 C61.0856102,13.989071 38.3300546,25.7398907 21.9628415,41.0346084 C2.51803279,59.2204007 -0.559562842,75.028051 0.699453552,81.6495446 C5.22258652,105.151184 37.6306011,120.445902 50.5938069,131.777049 C49.9409836,132.150091 49.3347905,132.476503 48.8218579,132.756284 C42.340255,135.97377 17.6262295,148.890346 11.4710383,162.553005 C4.47650273,178.034244 12.5901639,189.13224 17.9526412,190.624408 C34.5996357,195.240801 51.7129326,186.940619 60.8990893,173.23133 C70.0852459,159.52204 68.9661202,141.70929 64.7227687,133.548998 C64.6761384,133.455738 64.6295082,133.362477 64.5362477,133.269217 C66.2149362,132.289982 67.940255,131.264117 69.6189435,130.284882 C72.9296903,128.326412 76.1938069,126.507832 78.9916211,125.015665 C77.4061931,129.352277 76.2404372,134.528233 75.6808743,141.989071 C74.9814208,150.755556 78.571949,162.133333 83.2816029,166.609836 C85.3799636,168.568306 87.8513661,168.614936 89.4367942,168.614936 C94.9391621,168.614936 97.4105647,164.045173 100.161749,158.636066 C103.519126,152.014572 106.550091,144.320583 106.550091,144.320583 C106.550091,144.320583 102.773042,165.117668 113.031694,165.117668 C116.762113,165.117668 120.539162,160.268124 122.217851,157.796721 L122.217851,157.843352 C122.217851,157.843352 122.311111,157.703461 122.497632,157.377049 C122.870674,156.770856 123.103825,156.397814 123.103825,156.397814 L123.103825,156.304554 C124.595993,153.69326 127.95337,147.77122 132.942805,137.93224 C139.377778,125.248816 145.579599,109.394536 145.579599,109.394536 C145.579599,109.394536 146.139162,113.264845 148.051002,119.699818 C149.170128,123.476867 151.501639,127.626958 153.366849,131.637158 C151.874681,133.735519 150.942077,134.901275 150.942077,134.901275 C150.942077,134.901275 150.942077,134.901275 150.988707,134.947905 C149.776321,136.533333 148.470674,138.258652 147.025137,139.937341 C141.942441,145.999271 135.88051,152.947177 135.041166,154.952277 C134.061931,157.330419 134.295082,159.055738 136.160291,160.454645 C137.512568,161.48051 139.937341,161.620401 142.408743,161.48051 C146.978506,161.154098 150.195993,160.034973 151.781421,159.335519 C154.252823,158.449545 157.143898,157.097268 159.848452,155.092168 C164.837887,151.408379 167.868852,146.139162 167.589071,139.191257 C167.44918,135.367577 166.190164,131.543898 164.651366,127.95337 C165.117668,127.300546 165.537341,126.647723 166.003643,125.9949 C173.884153,114.477231 179.992714,101.840437 179.992714,101.840437 C179.992714,101.840437 180.552277,105.710747 182.464117,112.145719 C183.396721,115.409836 185.308561,118.953734 186.98725,122.404372 C179.573042,128.419672 175.003279,135.414208 173.37122,139.983971 C170.433515,148.470674 172.718397,152.294353 177.055009,153.180328 C179.013479,153.6 181.811293,152.667395 183.863024,151.781421 C186.474317,150.942077 189.551913,149.496539 192.489617,147.351548 C197.479053,143.66776 202.281967,138.538434 202.002186,131.590528 C201.862295,128.419672 201.022951,125.295446 199.857195,122.264481 C206.152277,119.653188 214.265938,118.20765 224.617851,119.420036 C246.813843,122.03133 251.197086,135.88051 250.357741,141.70929 C249.518397,147.538069 244.855373,150.708925 243.316576,151.68816 C241.777778,152.667395 241.264845,152.993807 241.404736,153.69326 C241.591257,154.719126 242.337341,154.672495 243.642987,154.485974 C245.461566,154.159563 255.300546,149.776321 255.720219,139.051366 C256.419672,125.342077 243.363206,110.37377 220.281239,110.513661 L220.281239,110.513661 Z M49.0550091,168.241894 C41.6874317,176.262295 31.4287796,179.29326 26.9989071,176.728597 C22.242623,173.977413 24.1078324,162.133333 33.1540984,153.64663 C38.6564663,148.470674 45.7442623,143.66776 50.4539162,140.730055 C51.5264117,140.077231 53.1118397,139.144627 55.0236794,137.978871 C55.3500911,137.79235 55.536612,137.699089 55.536612,137.699089 L55.536612,137.699089 C55.9096539,137.465938 56.2826958,137.232787 56.6557377,136.999636 C59.9664845,149.123497 56.7956284,159.801821 49.0550091,168.241894 L49.0550091,168.241894 Z M102.679781,131.777049 C100.115118,138.025501 94.7526412,154.019672 91.4885246,153.133698 C88.6907104,152.387614 86.9653916,140.263752 90.9289617,128.279781 C92.9340619,122.264481 97.1774135,115.083424 99.648816,112.28561 C103.659016,107.809107 108.088889,106.31694 109.161384,108.135519 C110.513661,110.513661 104.265209,127.860109 102.679781,131.777049 L102.679781,131.777049 Z M146.931876,152.947177 C145.859381,153.50674 144.833515,153.879781 144.367213,153.6 C144.040801,153.413479 144.833515,152.667395 144.833515,152.667395 C144.833515,152.667395 150.382514,146.698725 152.574135,143.994171 C153.833151,142.408743 155.325319,140.543534 156.910747,138.445173 L156.910747,139.051366 C156.910747,146.185792 150.009472,150.988707 146.931876,152.947177 L146.931876,152.947177 Z M181.065209,145.159927 C180.272495,144.600364 180.412386,142.735155 183.07031,136.906375 C184.096175,134.621494 186.520947,130.797814 190.671038,127.114026 C191.137341,128.606193 191.463752,130.05173 191.417122,131.404007 C191.370492,140.403643 184.935519,143.76102 181.065209,145.159927 L181.065209,145.159927 Z"></path>
    </g>
  </symbol>
  <symbol version="1.1" xmlns="http://www.w3.org/2000/svg" xmlns:xlink="http://www.w3.org/1999/xlink" preserveAspectRatio="xMidYMid" viewBox="0 0 256 256" id="typescript">
    <g>
      <polygon fill="#007ACC" transform="translate(128.000000, 128.000000) scale(1, -1) translate(-128.000000, -128.000000) " points="0 128 0 0 128 0 256 0 256 128 256 256 128 256 0 256"></polygon>
      <path d="M146.658132,223.436863 L146.739401,212.953054 L130.079084,212.953054 L113.418767,212.953054 L113.418767,165.613371 L113.418767,118.273689 L101.63464,118.273689 L89.8505126,118.273689 L89.8505126,165.613371 L89.8505126,212.953054 L73.1901951,212.953054 L56.5298776,212.953054 L56.5298776,223.233689 C56.5298776,228.922577 56.6517824,233.676863 56.8143221,233.798768 C56.9362269,233.961308 77.2130522,234.042577 101.797179,234.001943 L146.536227,233.880038 L146.658132,223.436863 Z" fill="#FFFFFF" transform="translate(101.634640, 176.142993) rotate(-180.000000) translate(-101.634640, -176.142993) "></path>
      <path d="M206.566631,234.272145 C213.068219,232.646748 218.025679,229.761668 222.57679,225.048018 C224.933616,222.528653 228.428219,217.936907 228.712663,216.839764 C228.793933,216.514684 217.659965,209.037859 210.914568,204.852462 C210.670758,204.689922 209.69552,205.74643 208.598377,207.371827 C205.306949,212.166748 201.852981,214.239129 196.570441,214.604843 C188.809171,215.133097 183.811076,211.069605 183.851711,204.283573 C183.851711,202.292462 184.136155,201.114049 184.948854,199.488653 C186.65552,195.953414 189.825044,193.840399 199.7806,189.533097 C218.106949,181.649922 225.949489,176.448653 230.825679,169.053097 C236.270758,160.804208 237.489806,147.638494 233.792028,137.845478 C229.728536,127.199129 219.651076,119.966113 205.469489,117.568653 C201.080917,116.796589 190.678377,116.918494 185.964727,117.771827 C175.684092,119.600399 165.931711,124.679764 159.917743,131.343891 C157.560917,133.944526 152.969171,140.730557 153.253616,141.218176 C153.37552,141.380716 154.432028,142.030875 155.610441,142.721668 C156.748219,143.371827 161.05552,145.850557 165.119012,148.207383 L172.473933,152.474049 L174.01806,150.198494 C176.171711,146.907065 180.885362,142.396589 183.729806,140.893097 C191.897425,136.585795 203.112663,137.195319 208.639012,142.15278 C210.995838,144.30643 211.971076,146.541351 211.971076,149.83278 C211.971076,152.799129 211.605362,154.099446 210.061235,156.334367 C208.070123,159.178811 204.006631,161.576272 192.466314,166.574367 C179.259965,172.263256 173.571076,175.798494 168.369806,181.406113 C165.362822,184.656907 162.518377,189.858176 161.339965,194.206113 C160.364727,197.822621 160.120917,206.884208 160.892981,210.541351 C163.61552,223.300716 173.245996,232.199764 187.143139,234.841034 C191.653616,235.694367 202.137425,235.369287 206.566631,234.272145 Z" fill="#FFFFFF" transform="translate(194.578507, 176.190240) scale(1, -1) translate(-194.578507, -176.190240) "></path>
    </g>
  </symbol>
  <symbol version="1.1" xmlns="http://www.w3.org/2000/svg" xmlns:xlink="http://www.w3.org/1999/xlink" preserveAspectRatio="xMidYMid" viewBox="0 0 256 256" id="vscode">
    <g>
      <path d="M191.97885,0 L191.97885,219.867316 L0,191.353848 L191.97885,255.998083 L255.97885,229.374998 L255.97885,30.592308 L256,30.5826932 L255.97885,30.5403853 L255.97885,26.6250001 L191.97885,0 Z M124.796158,37.4576925 L65.9942314,95.5826932 L30.5923079,68.9211553 L16.0019234,73.7942316 L52.0192315,109.398076 L16.0019234,145.000006 L30.5923079,149.875005 L65.9942314,123.211541 L65.9961553,123.211541 L124.794228,181.332699 L160.011538,166.369233 L160.011538,52.4211546 L124.796158,37.4576925 Z M124.794228,78.9307702 L124.794228,139.857695 L84.340386,109.394236 L124.794228,78.9307702 Z" fill="#016EC5"></path>
    </g>
  </symbol>
  <symbol version="1.1" xmlns="http://www.w3.org/2000/svg" xmlns:xlink="http://www.w3.org/1999/xlink" preserveAspectRatio="xMidYMid" viewBox="0 0 256 290" id="webpack">
    <g>
      <polygon fill="#FFFFFF" points="128 0.0483018868 256 72.4528302 256 217.310189 128 289.714717 0 217.310189 0 72.4528302"></polygon>
      <path d="M233.153208,212.286792 L132.250566,269.427925 L132.250566,224.990189 L195.139623,190.357736 L233.153208,212.286792 Z M240.060377,206.055849 L240.060377,86.6535849 L203.157736,107.954717 L203.157736,184.754717 L240.060377,206.055849 Z M22.4603774,212.286792 L123.363019,269.379623 L123.363019,224.941887 L60.4739623,190.357736 L22.4603774,212.286792 L22.4603774,212.286792 Z M15.5532075,206.055849 L15.5532075,86.6535849 L52.4558491,107.954717 L52.4558491,184.754717 L15.5532075,206.055849 L15.5532075,206.055849 Z M19.8520755,78.925283 L123.363019,20.3833962 L123.363019,63.3720755 L57.0445283,99.84 L56.5132075,100.129811 L19.8520755,78.925283 L19.8520755,78.925283 Z M235.713208,78.925283 L132.250566,20.3833962 L132.250566,63.3720755 L198.520755,99.8883019 L199.052075,100.178113 L235.713208,78.925283 L235.713208,78.925283 Z" fill="#8ED6FB"></path>
      <path d="M123.363019,214.846792 L61.3433962,180.697358 L61.3433962,113.123019 L123.363019,148.914717 L123.363019,214.846792 L123.363019,214.846792 Z M132.250566,214.846792 L194.270189,180.74566 L194.270189,113.123019 L132.250566,148.914717 L132.250566,214.846792 Z M65.4973585,105.298113 L127.806792,71.0520755 L190.067925,105.298113 L127.806792,141.234717 L65.4973585,105.298113 L65.4973585,105.298113 Z" fill="#1C78C0"></path>
    </g>
  </symbol>
  <symbol version="1.1" xmlns="http://www.w3.org/2000/svg" xmlns:xlink="http://www.w3.org/1999/xlink" preserveAspectRatio="xMidYMid" viewBox="0 0 256 256" id="yarn">
    <g>
      <path d="M128,0 C57.3281853,0 0,57.3281853 0,128 C0,198.671815 57.3281853,256 128,256 C198.671815,256 256,198.671815 256,128 C256,57.3281853 198.671815,0 128,0" fill="#368FB9"></path>
      <path d="M203.317375,174.060232 C195.410039,175.938224 191.40695,177.667954 181.621622,184.043243 C166.350579,193.927413 149.646332,198.523552 149.646332,198.523552 C149.646332,198.523552 148.262548,200.599228 144.259459,201.538224 C137.340541,203.218533 111.295753,204.651737 108.923552,204.701158 C102.548263,204.750579 98.6440154,203.07027 97.5567568,200.450965 C94.2455598,192.543629 102.301158,189.08417 102.301158,189.08417 C102.301158,189.08417 100.522008,187.996911 99.4841699,187.008494 C98.5451737,186.069498 97.5567568,184.191506 97.2602317,184.883398 C96.0247104,187.898069 95.3822394,195.261776 92.0710425,198.572973 C87.5243243,203.169112 78.9250965,201.637066 73.834749,198.96834 C68.2501931,196.003089 74.2301158,189.034749 74.2301158,189.034749 C74.2301158,189.034749 71.215444,190.8139 68.7938224,187.156757 C66.619305,183.796139 64.5930502,178.06332 65.1366795,170.996139 C65.7297297,162.940541 74.7243243,155.132046 74.7243243,155.132046 C74.7243243,155.132046 73.1428571,143.221622 78.3320463,131.014672 C83.027027,119.894981 95.6787645,110.949807 95.6787645,110.949807 C95.6787645,110.949807 85.0532819,99.1876448 89.0069498,88.611583 C91.576834,81.6926641 92.6146718,81.7420849 93.4548263,81.4455598 C96.4200772,80.3088803 99.2864865,79.0733591 101.411583,76.7505792 C112.037066,65.2849421 125.578378,67.4594595 125.578378,67.4594595 C125.578378,67.4594595 132.003089,47.9382239 137.933591,51.7436293 C139.762162,52.9297297 146.335135,67.5583012 146.335135,67.5583012 C146.335135,67.5583012 153.352896,63.4563707 154.143629,64.988417 C158.393822,73.2416988 158.888031,89.0069498 157.010039,98.5945946 C153.847104,114.409266 145.939768,122.909653 142.776834,128.247104 C142.035521,129.482625 151.27722,133.386873 157.10888,149.54749 C162.495753,164.324324 157.701931,176.728958 158.542085,178.112741 C158.690347,178.359846 158.739768,178.458687 158.739768,178.458687 C158.739768,178.458687 164.917375,178.952896 177.322008,171.292664 C183.944402,167.190734 191.802317,162.594595 200.74749,162.495753 C209.396139,162.34749 209.840927,172.478764 203.317375,174.060232 L203.317375,174.060232 Z M215.079537,166.795367 C214.189961,159.777606 208.259459,154.934363 200.648649,155.033205 C189.281853,155.181467 179.743629,161.062548 173.417761,164.966795 C170.946718,166.498842 168.821622,167.635521 166.99305,168.475676 C167.388417,162.742857 167.042471,155.230888 164.07722,146.977606 C160.469498,137.093436 155.626255,131.014672 152.166795,127.505792 C156.169884,121.674131 161.655598,113.173745 164.225483,100.027799 C166.449421,88.8092664 165.757529,71.3637066 160.667181,61.5783784 C159.629344,59.6015444 157.899614,58.1683398 155.725097,57.5752896 C154.835521,57.3281853 153.155212,56.8339768 149.844015,57.772973 C144.85251,47.4440154 143.12278,46.3567568 141.788417,45.4671815 C139.020849,43.6880309 135.759073,43.2926641 132.694981,44.4293436 C128.59305,45.9119691 125.08417,49.8656371 121.772973,56.8833977 C121.278764,57.9212355 120.833977,58.9096525 120.43861,59.8980695 C114.162162,60.3428571 104.277992,62.6162162 95.9258687,71.6602317 C94.8880309,72.7969112 92.8617761,73.6370656 90.7366795,74.4277992 L90.7861004,74.4277992 C86.4370656,75.9598456 84.4602317,79.5181467 82.03861,85.9428571 C78.6779923,94.9374517 82.1374517,103.783784 85.5474903,109.516602 C80.9019305,113.667954 74.7243243,120.290347 71.4625483,128.049421 C67.4100386,137.637066 66.965251,147.027027 67.1135135,152.117375 C63.6540541,155.774517 58.3166023,162.644015 57.7235521,170.353668 C56.9328185,181.127413 60.8370656,188.441699 62.5667954,191.110425 C63.0610039,191.901158 63.6046332,192.543629 64.1976834,193.1861 C64,194.520463 63.9505792,195.953668 64.2471042,197.436293 C64.8895753,200.895753 67.0640927,203.712741 70.3752896,205.491892 C76.8988417,208.951351 85.992278,210.433977 93.0100386,206.925097 C95.5305019,209.593822 100.126641,212.163707 108.478764,212.163707 L108.972973,212.163707 C111.098069,212.163707 138.081853,210.730502 145.939768,208.803089 C149.448649,207.962934 151.87027,206.480309 153.451737,205.145946 C158.492664,203.564479 172.429344,198.820077 185.57529,190.319691 C194.866409,184.290347 198.078764,183.005405 204.997683,181.325097 C211.718919,179.694208 215.919691,173.566023 215.079537,166.795367 L215.079537,166.795367 Z" fill="#FFFFFF"></path>
    </g>
  </symbol>
</svg>