<svg width="0" height="0" class="hidden">
  <symbol xmlns="http://www.w3.org/2000/svg" viewBox="0 0 20 20" id="about">
    <path d="M10 0C4.5 0 0 4.5 0 10s4.5 10 10 10 10-4.5 10-10S15.5 0 10 0Zm0 3c1.7 0 3 1.3 3 3s-1.3 3-3 3-3-1.3-3-3 1.3-3 3-3Zm0 14.2c-2.5 0-4.7-1.3-6-3.2 0-2 4-3.1 6-3.1s6 1.1 6 3.1c-1.3 1.9-3.5 3.2-6 3.2Z" fill="#121212" fill-rule="evenodd"></path>
  </symbol>
  <symbol xmlns="http://www.w3.org/2000/svg" viewBox="0 0 20 21" id="certificates">
    <path d="m20 7.744-7.191-.617L10 .5 7.191 7.127 0 7.744l5.455 4.727L3.82 19.5 10 15.772l6.18 3.728-1.635-7.029L20 7.744Zm-10 6.152-3.763 2.27.996-4.281L3.91 9.007l4.38-.376L10 4.595l1.71 4.036 4.38.376-3.322 2.878.996 4.281L10 13.896Z" fill="#121212" fill-rule="evenodd"></path>
  </symbol>
  <symbol version="1.1" xmlns="http://www.w3.org/2000/svg" xmlnsSketch="http://www.bohemiancoding.com/sketch/ns" xmlns:xlink="http://www.w3.org/1999/xlink" viewBox="0 0 20 21" id="contacts">
    <title></title>
    <desc></desc>
    <defs></defs>
    <g fill="none" fill-rule="evenodd" id="Page-1" stroke="none" stroke-width="1">
      <g fill="#000000" id="Core" transform="translate(-422.000000, -128.000000)">
        <g id="drafts" transform="translate(422.000000, 128.500000)">
          <path d="M20,7 C20,6.3 19.6,5.7 19.1,5.3 L10,0 L0.9,5.3 C0.4,5.7 0,6.3 0,7 L0,17 C0,18.1 0.9,19 2,19 L18,19 C19.1,19 20,18.1 20,17 L20,7 L20,7 Z M10,12 L1.7,6.8 L10,2 L18.3,6.8 L10,12 L10,12 Z" id="Shape"></path>
        </g>
      </g>
    </g>
  </symbol>
  <symbol xmlns="http://www.w3.org/2000/svg" viewBox="0 0 24 24" id="dark">
    <path d="M20.21 15.32A8.56 8.56 0 1 1 11.29 3.5a.5.5 0 0 1 .51.28.49.49 0 0 1-.09.57A6.46 6.46 0 0 0 9.8 9a6.57 6.57 0 0 0 9.71 5.72.52.52 0 0 1 .58.07.52.52 0 0 1 .12.53Z" fill="#ffffff"></path>
  </symbol>
  <symbol xml:space="preserve" xmlns="http://www.w3.org/2000/svg" shape-rendering="geometricPrecision" text-rendering="geometricPrecision" image-rendering="optimizeQuality" fill-rule="evenodd" clip-rule="evenodd" viewBox="0 0 4335 4335" id="en">
    <path d="M542 119h3251c233 0 423 190 423 423v3251c0 233-190 423-423 423H542c-233 0-423-190-423-423V542c0-233 190-423 423-423zm1257 2849H851V1367h911v279h-569v377h529v278h-529v388h607v279zm1686 0h-350l-678-1036c-35-54-61-97-77-130h-5c6 55 9 140 9 255v911h-323V1367h372l653 1006c43 67 70 109 79 127h5c-7-39-10-113-10-221v-913h324v1601z" fill="#121212"></path>
  </symbol>
  <symbol xmlns="http://www.w3.org/2000/svg" viewBox="0 0 24 24" id="light">
    <circle cx="12" cy="12" fill="#121212" r="5"></circle>
    <path d="M21 13h-1a1 1 0 0 1 0-2h1a1 1 0 0 1 0 2ZM4 13H3a1 1 0 0 1 0-2h1a1 1 0 0 1 0 2ZM17.66 7.34a1 1 0 0 1-.66-.29 1 1 0 0 1 0-1.41l.71-.71a1 1 0 1 1 1.41 1.41l-.71.71a1 1 0 0 1-.75.29ZM5.64 19.36a1 1 0 0 1-.71-.29 1 1 0 0 1 0-1.41l.71-.66a1 1 0 0 1 1.41 1.41l-.71.71a1 1 0 0 1-.7.24ZM12 5a1 1 0 0 1-1-1V3a1 1 0 0 1 2 0v1a1 1 0 0 1-1 1ZM12 22a1 1 0 0 1-1-1v-1a1 1 0 0 1 2 0v1a1 1 0 0 1-1 1ZM6.34 7.34a1 1 0 0 1-.7-.29l-.71-.71a1 1 0 0 1 1.41-1.41l.71.71a1 1 0 0 1 0 1.41 1 1 0 0 1-.71.29ZM18.36 19.36a1 1 0 0 1-.7-.29l-.66-.71A1 1 0 0 1 18.36 17l.71.71a1 1 0 0 1 0 1.41 1 1 0 0 1-.71.24Z" fill="#121212"></path>
  </symbol>
  <symbol xmlns="http://www.w3.org/2000/svg" viewBox="0 0 20 19" id="main">
    <path d="M8 17.5v-6h4v6h5v-8h3l-10-9-10 9h3v8h5Z" fill="#121212" fill-rule="evenodd"></path>
  </symbol>
  <symbol xmlns="http://www.w3.org/2000/svg" viewBox="0 0 20 21" id="portfolio">
    <path d="M18 4.5h-4v-2l-2-2H8l-2 2v2H2c-1.1 0-2 .9-2 2v11c0 1.1.9 2 2 2h16c1.1 0 2-.9 2-2v-11c0-1.1-.9-2-2-2Zm-6 0H8v-2h4v2Z" fill="#121212" fill-rule="evenodd"></path>
  </symbol>
  <symbol xml:space="preserve" xmlns="http://www.w3.org/2000/svg" shape-rendering="geometricPrecision" text-rendering="geometricPrecision" image-rendering="optimizeQuality" fill-rule="evenodd" clip-rule="evenodd" viewBox="0 0 4335 4335" id="ru">
    <path d="M542 119h3251c233 0 423 190 423 423v3251c0 233-190 423-423 423H542c-233 0-423-190-423-423V542c0-233 190-423 423-423zm662 2277v558H863V1353h551c398 0 597 169 597 506 0 164-60 296-180 394-120 99-271 146-451 142h-176zm0-778v517h148c201 0 301-87 301-262 0-170-99-255-298-255h-151zm2269-265-500 1100c-102 225-198 369-286 433-89 64-185 96-289 96-84 0-153-12-207-37v-313c61 39 123 59 188 59 94 0 177-77 249-229l-527-1108h388l279 666c14 32 26 74 37 127h2c8-37 21-79 39-124l268-669h360z" fill="#121212"></path>
  </symbol>
</svg>